<?xml version="1.0" encoding="UTF-8"?>
<svg id="Capa_1" data-name="Capa 1" xmlns="http://www.w3.org/2000/svg" xmlns:xlink="http://www.w3.org/1999/xlink" viewBox="0 0 57.48 60.96">
  <defs>
    <style>
      .cls-1 {
        fill: url(#Degradado_sin_nombre_33-2);
      }

      .cls-2 {
        fill: #386e2e;
      }

      .cls-3 {
        fill: #5c5b1f;
      }

      .cls-4 {
        fill: #36702f;
      }

      .cls-5 {
        fill: url(#Degradado_sin_nombre_33);
      }

      .cls-6 {
        fill: none;
        stroke: url(#Degradado_sin_nombre_70);
        stroke-miterlimit: 10;
      }
    </style>
    <linearGradient id="Degradado_sin_nombre_33" data-name="Degradado sin nombre 33" x1="7.07" y1="12.25" x2="52.92" y2="12.25" gradientUnits="userSpaceOnUse">
      <stop offset="0" stop-color="#36702f"/>
      <stop offset=".56" stop-color="#98c347"/>
      <stop offset="1" stop-color="#93c145"/>
    </linearGradient>
    <linearGradient id="Degradado_sin_nombre_33-2" data-name="Degradado sin nombre 33" x1="2.6" y1="13.05" x2="43.58" y2="13.05" xlink:href="#Degradado_sin_nombre_33"/>
    <linearGradient id="Degradado_sin_nombre_70" data-name="Degradado sin nombre 70" x1="15.87" y1="43.44" x2="57.13" y2="43.44" gradientUnits="userSpaceOnUse">
      <stop offset=".09" stop-color="#98c347"/>
      <stop offset=".17" stop-color="#98c347"/>
      <stop offset=".27" stop-color="#8ec041"/>
      <stop offset=".35" stop-color="#93c145"/>
      <stop offset=".65" stop-color="#36702f"/>
      <stop offset="1" stop-color="#3b7631"/>
    </linearGradient>
  </defs>
  <g>
    <path class="cls-3" d="M34.6,23.66c.16.44.34.95.52,1.46.57,1.68,1.13,3.35,1.7,5.03.08.24.09.41-.15.57-1.75,1.16-3.59,2.15-5.59,2.82-.03,0-.06,0-.13,0-.36-1.69-.73-3.38-1.08-5.08-.02-.11.02-.27.09-.35,1.54-1.49,3.08-2.97,4.64-4.46Z"/>
    <path class="cls-3" d="M26.51,20.35c2.4.77,4.74,1.53,7.24,2.33-.54.52-1,.95-1.44,1.39-1.03,1.02-2.04,2.05-3.08,3.06-.12.12-.33.25-.48.23-1.66-.19-3.31-.41-5.01-.63.64-2.26,1.62-4.33,2.78-6.39Z"/>
    <path class="cls-3" d="M42.6,9.22c.27-1.38.53-2.73.79-4.08,3.26.21,7.54,2.67,8.46,6.49-1.45.45-2.9.9-4.39,1.35-1.05-1.98-2.74-3.13-4.87-3.76Z"/>
    <path class="cls-3" d="M27.07,19.27c1.02-1.4,1.98-2.72,2.98-4.09,2.53,1.2,5,2.37,7.62,3.61-.7.67-1.41,1.23-1.97,1.92-.69.85-1.36,1-2.41.61-2-.76-4.07-1.34-6.23-2.04Z"/>
    <path class="cls-3" d="M41.66,14.76c-.37.35-.74.7-1.11,1.07-.51.5-1.05.98-1.51,1.52-.37.43-.68.47-1.19.22-2.11-1.04-4.24-2.03-6.37-3.04-.14-.07-.28-.14-.46-.22,1.16-1.19,2.46-2.1,3.87-2.85.12-.06.33-.06.45,0,2.07,1.05,4.13,2.11,6.2,3.17.03.01.04.05.12.14Z"/>
    <path class="cls-3" d="M42.48,15.72c.45,1.25.91,2.5,1.36,3.75.34.93.68,1.86,1,2.8.05.15.1.39.02.49-.84,1.13-1.7,2.24-2.64,3.46-.16-.36-.25-.55-.33-.76-.79-2.06-1.56-4.13-2.37-6.18-.15-.39-.12-.64.2-.92.92-.85,1.81-1.72,2.76-2.64Z"/>
    <path class="cls-3" d="M38.43,19.76c.55,1.43,1.1,2.87,1.65,4.31.33.86.65,1.73.99,2.59.11.27.11.46-.14.67-.97.81-1.91,1.65-2.93,2.53-.15-.42-.27-.73-.38-1.05-.67-1.95-1.33-3.91-1.98-5.87-.05-.16-.07-.42.03-.51.9-.9,1.82-1.77,2.77-2.68Z"/>
    <path class="cls-3" d="M47.95,18.96c.36-1.62.41-3.21-.04-4.87,1.42-.44,2.82-.87,4.28-1.32.47,2.62.07,5.06-.89,7.5-1.13-.44-2.22-.87-3.35-1.31Z"/>
    <path class="cls-3" d="M47.59,20.12c1.1.43,2.14.84,3.22,1.26-1.09,2.27-2.5,4.26-4.09,6.21l-2.2-2.29c1.22-1.54,2.32-3.22,3.07-5.18Z"/>
    <path class="cls-3" d="M42.2,4.99c-.26,1.34-.51,2.63-.74,3.83-1.54.12-3.03.24-4.6.37-.39-.89-.83-1.9-1.29-2.96,2.13-.86,4.32-1.3,6.63-1.25Z"/>
    <path class="cls-3" d="M7.16,38.33c.87.32,1.71.61,2.54.93.13.05.27.23.31.37.31,1.11.92,2.04,1.74,2.83.23.22.28.42.22.73-.18.84-.32,1.68-.49,2.53-2.49-1.01-4.63-4.66-4.32-7.39Z"/>
    <path class="cls-3" d="M24.46,15.2c.92.68,1.75,1.28,2.6,1.9-.88,1.51-1.77,3.03-2.69,4.6-.98-.51-1.99-1.02-3.12-1.6,1.07-1.63,2.12-3.23,3.21-4.9Z"/>
    <path class="cls-3" d="M45.74,21.17c-.33-.89-.65-1.75-.96-2.62-.43-1.18-.85-2.35-1.26-3.53-.05-.15-.04-.41.06-.51.67-.68,1.37-1.34,2.06-2,1.78,1.64,1.92,5.8.1,8.66Z"/>
    <path class="cls-3" d="M45.92,28.6l-3.95,3.79c-.69-.86-1.35-1.69-2.01-2.51l3.74-3.59,2.22,2.31Z"/>
    <path class="cls-3" d="M39,30.61c.66.83,1.32,1.67,2.04,2.59-1.52,1.03-3.01,2.04-4.57,3.1-.48-1.15-.9-2.17-1.33-3.19,1.28-.83,2.53-1.64,3.85-2.5Z"/>
    <path class="cls-3" d="M31.28,12.29c-1.21,1.29-2.37,2.53-3.56,3.8-.78-.57-1.6-1.17-2.46-1.8,1.15-1.39,2.28-2.72,3.66-3.83.09-.07.33-.07.4,0,.67.61,1.33,1.24,1.96,1.83Z"/>
    <path class="cls-3" d="M36.64,10.79c2.83-.98,5.54-1.03,8.19.85-.76.72-1.45,1.4-2.16,2.06-.05.05-.19.05-.26.02-1.93-.97-3.85-1.95-5.77-2.92Z"/>
    <path class="cls-3" d="M20.68,21.15c1.12.58,2.15,1.11,3.18,1.65-.45,1.22-.89,2.41-1.35,3.64-1.16-.41-2.32-.81-3.58-1.25.59-1.36,1.17-2.69,1.76-4.04Z"/>
    <path class="cls-3" d="M35.74,9.63c-1.11.64-2.18,1.25-3.25,1.85-.09.05-.27.04-.34-.02-.69-.63-1.37-1.28-2.09-1.97,1.38-1.12,2.81-2.03,4.41-2.77.44,1.01.87,1.98,1.27,2.9Z"/>
    <path class="cls-3" d="M24.84,40.49c.57.7,1.12,1.39,1.74,2.16-1.22.79-2.4,1.55-3.62,2.34-.43-.79-.82-1.52-1.21-2.23,1.04-.76,2.04-1.5,3.09-2.27Z"/>
    <path class="cls-3" d="M17.69,38.41c.5-.38.93-.72,1.37-1.04.06-.04.19-.05.26-.02,1.46.75,2.91,1.5,4.47,2.31-.7.52-1.32.98-1.95,1.44-.06.05-.2.06-.26.02-1.28-.88-2.55-1.78-3.89-2.71Z"/>
    <path class="cls-3" d="M35.39,36.84c-.85.41-1.66.8-2.53,1.21-.51-1.11-1-2.18-1.51-3.28.91-.37,1.79-.73,2.72-1.11.43,1.04.86,2.09,1.32,3.18Z"/>
    <path class="cls-3" d="M21.85,45.64c-1.35.45-2.62.87-3.95,1.31-.19-.93-.36-1.73-.52-2.5,1.09-.36,2.14-.7,3.24-1.06.37.67.76,1.4,1.22,2.25Z"/>
    <path class="cls-3" d="M13.15,43.75c.9.22,1.76.42,2.61.65.15.04.33.19.37.33.18.71.31,1.42.47,2.2-1.35.12-2.62-.15-3.92-.59.17-.91.33-1.81.48-2.59Z"/>
    <path class="cls-3" d="M16.83,30.5c-1.06.67-2.04,1.29-3.06,1.92-.49-.61-.98-1.23-1.54-1.94,1.08-.61,2.1-1.19,3.16-1.79.51.64.97,1.21,1.45,1.8Z"/>
    <path class="cls-3" d="M17.42,31.72c.32,1.45.63,2.85.92,4.25.03.13-.06.35-.17.44-.39.33-.82.63-1.29.99-.26-1.19-.51-2.33-.75-3.46-.29-1.42-.29-1.42,1.01-2.1.07-.04.15-.06.28-.12Z"/>
    <path class="cls-3" d="M7.17,36.98c.51-1.07.99-2.09,1.51-3.18.76.65,1.4,1.2,2.02,1.73-.3.8-.59,1.57-.9,2.41-.79-.29-1.64-.6-2.63-.96Z"/>
    <path class="cls-3" d="M14.47,39.12c-.42-1.39-.85-2.8-1.26-4.22-.03-.11.05-.32.14-.4.41-.38.85-.74,1.34-1.15.24,1.1.46,2.12.69,3.15.03.14.03.3.09.43.46,1.06.15,1.79-1,2.2Z"/>
    <path class="cls-3" d="M20.47,41.91q-1.69.97-3.17-.14c-.66-.49-1.33-.97-2.08-1.51.46-.34.87-.65,1.29-.94.06-.04.19-.03.25.01,1.22.84,2.44,1.69,3.71,2.58Z"/>
    <path class="cls-3" d="M12.15,35.85c.41,1.38.81,2.68,1.19,3.99.03.09-.03.25-.11.31-.34.27-.7.52-1.05.78-1.36-1.2-1.39-3.3-.04-5.08Z"/>
    <path class="cls-3" d="M11.47,34.52c-.62-.53-1.23-1.06-1.88-1.63l1.65-1.58c.53.66,1.03,1.29,1.55,1.94l-1.32,1.26Z"/>
    <path class="cls-3" d="M13.11,41.89q.97-.87,1.96-.17c.31.21.61.43.91.65.3.22.6.44.91.66-1,.39-3.14-.29-3.78-1.14Z"/>
  </g>
  <g>
    <path class="cls-5" d="M7.12,15.13S5.44,2.9,21.51.26c.24,0,20.14-2.88,31.41,10.55,0,0-6.71-2.4-23.74,9.83-.24,0-8.39,6.47-16.78,2.64,0-.24-3.6-1.2-5.28-8.15Z"/>
    <path class="cls-2" d="M18.51,3.26c-1.74,1.84-3.43,3.67-4.83,5.65-1.21,1.76-2.55,4.03-2.16,6.11.54,2.03,3,3.27,4.85,4.22,2.2,1.05,4.54,1.89,6.93,2.73-4.59-.16-12.06-1.39-13.72-6.48-.73-5.53,4.67-9.84,8.93-12.23h0Z"/>
    <path class="cls-4" d="M24.49,3.26c-2.34,2.22-4.83,4.27-6.54,6.93-.52.82-.87,1.71-.77,2.42.26,1.68,2.39,2.92,3.84,3.85,1.82,1.07,3.78,2,5.76,2.98-2.21-.18-4.38-.71-6.47-1.59-10.42-4.3-2.71-11.93,4.18-14.6h0Z"/>
    <path class="cls-4" d="M31.51,3.26c-2.64,1.9-5.37,3.58-7.61,5.84-.69.7-1.33,1.52-1.45,2.22-.05.25-.01.49.18.81.82,1.14,2.21,1.82,3.5,2.52,1.89.94,3.9,1.76,5.93,2.64-2.22-.07-4.41-.48-6.54-1.2-11.59-4.05-.57-11.4,5.99-12.83h0Z"/>
    <path class="cls-4" d="M37.69,3.98c-2.41,1.45-4.88,2.59-7.17,4.11-.81.56-1.56,1.09-1.86,1.78.38.94,1.9,1.42,2.89,1.92,1.66.7,3.41,1.31,5.17,2.02-1.9.11-3.8-.08-5.67-.54-2.02-.43-5.6-2.02-3.98-4.7.73-1.06,1.59-1.59,2.45-2.09,2.54-1.38,5.3-2.2,8.16-2.5h0Z"/>
    <path class="cls-4" d="M41.53,5.65c-1.99,1.18-4.32,1.66-6,3.13,0,.01.03,0,.02-.02-.03,0,0-.12-.03-.15,0-.03-.01,0,.04.05,1.63,1.25,3.79,1.67,5.67,2.68-1.33.23-2.66.2-3.99-.02-1.82-.2-4.97-1.64-3.19-3.87,1.96-1.84,4.92-2.01,7.47-1.8h0Z"/>
    <path class="cls-1" d="M4.56,20.59c12.15-5.95,25.45-9.42,39.01-9.42,3.86,0,3.87-6,0-6-14.64,0-28.93,3.83-42.04,10.24-3.47,1.7-.43,6.87,3.03,5.18h0Z"/>
  </g>
  <g>
    <path class="cls-4" d="M37.22,34.12c3.82.98,13.34,4.57,12.93,9.41-.45,2.41-2.39,4.19-4.15,5.65-1.98,1.59-4.12,2.9-6.43,3.9,1.84-1.69,3.69-3.32,5.38-5.05,1.3-1.43,2.83-2.87,3.24-4.75.06-1.14-.96-2.01-1.94-2.94-2.75-2.39-5.94-4.18-9.02-6.22h0Z"/>
    <path class="cls-4" d="M33.18,36.14c3.27,1.15,6.46,2.61,9.31,4.61,1.04.78,2.21,1.71,2.76,3.06.78,3.82-7.23,7.29-10.13,8.48,2.87-1.78,5.92-3.51,8.24-5.97.71-.81,1.31-1.77.78-2.53-.45-.86-1.35-1.61-2.22-2.3-2.71-2.07-5.76-3.7-8.75-5.37h0Z"/>
    <path class="cls-4" d="M27.62,37.65c3.16,1.01,14.34,5.57,11.36,10.05-1.23,1.49-3.1,2.15-4.83,2.73-2.3.71-4.66,1.16-7.04,1.37,2.42-.76,11.89-2.79,11.36-5.94-.25-.95-1.06-1.83-1.9-2.59-2.68-2.29-5.85-3.96-8.96-5.62h0Z"/>
    <path class="cls-4" d="M22.69,40.18c2.82.6,5.64,1.56,7.98,3.32,3.61,2.81,1.72,5.83-2.23,6.55-1.91.43-3.84.49-5.75.36,1.89-.26,3.77-.59,5.55-1.12,8.73-2.67-1.93-7.64-5.55-9.11h0Z"/>
    <path class="cls-4" d="M18.02,42.7c1.53.13,9.63,2.53,7.31,4.81-2.45,1.31-5.45.87-8.1.62,0,0,4.19-.54,4.19-.54,1.03-.18,2.61-.32,3.34-.89-.06-.15-.25-.36-.4-.51-1.87-1.52-4.18-2.38-6.33-3.49h0Z"/>
    <path class="cls-6" d="M56.92,40.18c-17.18,7.91-30.33,7.2-39.03,5.05-.63-.16-1.26-.33-1.88-.51"/>
  </g>
</svg>